<svg width="171" height="171" version="1.1" viewBox="0 0 171 171" xmlns="http://www.w3.org/2000/svg"><path d="m120 141c0.7-2.7 0.4-2.8-6.5-1.9-6.6 0.8-7 0.7-4.7-1.1 1.4-1.1 6.3-3.3 11-4.8 9.5-3.1 11-5.1 9.4-15-0.86-6.4-4-10-9.7-11-3.8-0.75-4.3-0.39-6.6 4.3-1.4 2.8-2.5 8.2-2.5 12-0.083 6.8-0.22 7-3.8 7-2.2 7.6e-4 -5.1 1.4-7 3.3l-3.3 3.3v-3.3c0-4-0.74-4-6.3-0.62-4.8 2.9-5 2.9-2.8-1.9 1.4-3.1 9.4-7.5 14-7.5 1.6 0 4-11 4.1-18 0.014-0.95-4.8-3.4-11-5.5-13-4.4-26-14-33-22-2.5-3.3-7.2-8.7-7.4-9.5-0.31-0.93-0.92 1.9-5.7 4.2-4.5 2.2-11 4-16 4.4-7.7 0.7-8.4 1.1-12 6.2-5.4 7.3-12 22-15 33-2.8 10-4.6 13-4.6 6.6 0.063-13 7.6-35 15-45 2.6-3.4 3.2-6.1 3.6-15 0.56-13 3.4-20 9.6-25 3.2-2.3 5.9-2.8 18-2.9 11-0.12 15-0.68 17-2.4 18-13 27-17 42-18 18-1.2 40 5.7 52 16 11 10 16 26 12 45-2.2 13-5.1 17-18 29-12 11-16 18-17 25-0.016 2 0.57 4 1.3 4.4 3 1.9 1.3 4.7-3 4.7-2.4 0.026-5.8 0.9-7.7 2-4.8 2.7-6.5 2.5-5.7-0.82z" stroke-width="1.3"/></svg>
