<?xml version="1.0" standalone="no"?>
<!DOCTYPE svg PUBLIC "-//W3C//DTD SVG 20010904//EN"
 "http://www.w3.org/TR/2001/REC-SVG-20010904/DTD/svg10.dtd">
<svg version="1.0" xmlns="http://www.w3.org/2000/svg"
 width="700.000000pt" height="700.000000pt" viewBox="0 0 700.000000 700.000000"
 preserveAspectRatio="xMidYMid meet">
<metadata>
Created by potrace 1.14, written by Peter Selinger 2001-2017
</metadata>
<g transform="translate(0.000000,700.000000) scale(0.100000,-0.100000)"
fill="#000000" stroke="none">
<path d="M4368 6395 c-2 -2 -41 -5 -88 -9 -83 -6 -106 -9 -200 -22 -69 -9 -73
-10 -110 -18 -297 -62 -526 -155 -836 -342 -137 -82 -356 -229 -503 -337 -57
-42 -129 -72 -201 -82 -25 -3 -56 -8 -70 -10 -45 -8 -242 -16 -485 -20 -409
-7 -508 -20 -625 -76 -130 -63 -282 -249 -354 -431 -28 -73 -72 -244 -81 -323
-4 -27 -8 -61 -10 -75 -6 -37 -14 -142 -20 -260 -8 -168 -21 -282 -41 -370
-17 -77 -47 -137 -119 -240 -150 -216 -268 -464 -399 -835 -31 -89 -98 -315
-111 -373 -3 -12 -7 -30 -9 -39 -27 -112 -41 -184 -52 -268 -3 -22 -7 -46 -10
-53 -7 -24 -18 -175 -18 -257 1 -234 58 -159 174 228 23 75 43 145 45 155 9
46 119 345 180 487 197 466 462 892 590 950 32 14 71 27 95 31 22 4 100 15
135 19 88 10 153 17 182 21 110 13 305 68 443 123 130 52 200 95 273 166 l58
56 24 -35 c54 -80 309 -389 377 -458 332 -333 772 -621 1193 -778 77 -28 165
-61 195 -73 91 -34 216 -94 271 -129 l51 -33 -6 -105 c-6 -87 -31 -257 -61
-405 -8 -44 -44 -155 -60 -191 -20 -43 -32 -50 -96 -57 -147 -17 -398 -147
-483 -250 -41 -50 -99 -187 -85 -201 11 -12 70 15 185 85 93 56 161 88 186 89
36 0 50 -43 50 -156 l0 -106 87 84 c141 138 201 171 331 184 115 10 120 13
136 51 9 20 17 80 19 141 10 230 32 390 65 477 7 17 13 38 16 49 5 27 72 156
101 195 28 37 72 59 109 55 281 -30 417 -148 473 -409 20 -93 23 -120 26 -242
5 -152 -8 -197 -75 -264 -56 -55 -148 -102 -317 -159 -229 -77 -403 -155 -476
-213 -34 -28 -36 -33 -22 -43 9 -7 22 -11 28 -9 7 2 46 6 87 9 41 4 86 8 100
10 14 3 51 7 83 11 185 20 207 16 207 -39 0 -20 -6 -36 -14 -39 -14 -6 -15
-62 -1 -76 17 -16 90 0 171 39 170 82 265 110 367 110 24 0 65 6 92 14 102 31
125 96 56 163 -52 51 -62 73 -68 152 -4 53 0 87 21 162 65 241 229 478 535
774 312 302 544 538 589 600 29 39 57 76 64 84 6 8 37 64 68 125 68 134 115
295 155 531 3 17 13 71 22 120 14 71 17 147 18 360 0 149 -3 288 -7 310 -5 22
-11 58 -14 80 -20 131 -92 348 -161 482 -48 96 -153 257 -203 313 -178 198
-346 322 -630 464 -311 155 -725 281 -1058 321 -20 3 -50 7 -67 9 -99 15 -476
30 -487 21z"/>
</g>
</svg>
